<?xml version="1.0" standalone="no"?>
<!DOCTYPE svg PUBLIC "-//W3C//DTD SVG 20010904//EN"
 "http://www.w3.org/TR/2001/REC-SVG-20010904/DTD/svg10.dtd">
<svg version="1.0" xmlns="http://www.w3.org/2000/svg"
 width="1024.000000pt" height="1536.000000pt" viewBox="0 0 1024.000000 1536.000000"
 preserveAspectRatio="xMidYMid meet">

<g transform="translate(0.000000,1536.000000) scale(0.100000,-0.100000)"
fill="#000000" stroke="none">
<path d="M5607 13459 c-374 -92 -637 -426 -637 -811 l0 -78 -247 0 c-149 0
-264 -4 -288 -11 -42 -12 -105 -67 -105 -93 0 -15 -77 -16 -839 -16 -919 0
-937 -1 -1087 -59 -265 -103 -451 -312 -522 -588 -16 -64 -17 -228 -17 -2703
0 -2965 -7 -2699 76 -2871 110 -228 303 -387 549 -452 l85 -22 2545 0 c2399 0
2549 1 2614 18 315 81 556 329 620 640 14 68 16 346 16 2674 0 1692 -4 2620
-10 2660 -52 317 -293 582 -616 675 -79 22 -80 23 -951 28 l-873 5 -18 35
c-12 22 -35 43 -62 58 -43 21 -54 22 -317 22 l-273 0 0 88 c0 162 42 264 155
378 50 51 91 81 145 108 129 63 160 66 675 66 303 0 474 4 500 11 21 6 54 26
72 44 27 27 33 41 33 74 0 60 -24 99 -73 122 -40 17 -72 19 -557 18 -472 0
-521 -2 -593 -20z m63 -1428 c0 -246 -1 -260 -21 -285 -11 -14 -28 -26 -37
-25 -13 0 -11 3 5 9 40 16 43 38 43 299 l0 251 -540 0 -540 0 0 -253 c0 -272
3 -290 53 -300 22 -4 22 -4 0 -6 -13 0 -30 10 -42 25 -20 25 -21 39 -21 285
l0 259 550 0 550 0 0 -259z m-1358 -138 c3 -218 4 -230 27 -277 31 -63 84
-116 147 -147 43 -21 65 -24 187 -27 l137 -4 0 -91 c0 -51 5 -110 10 -131 13
-57 58 -116 109 -143 l43 -23 -1 -112 c-2 -143 13 -271 36 -310 51 -88 178
-86 232 3 17 28 18 48 13 224 l-5 194 42 17 c49 19 107 83 121 133 5 20 10 82
10 138 l0 101 138 4 c126 3 141 5 194 31 70 34 131 101 158 173 18 49 20 78
20 264 l0 210 830 0 c566 0 846 -3 882 -11 132 -28 275 -133 336 -247 66 -123
62 27 62 -2311 0 -1583 -3 -2134 -12 -2162 -15 -52 -73 -117 -122 -140 -40
-18 -141 -19 -2789 -19 -2462 0 -2752 2 -2785 16 -53 22 -91 61 -118 122 l-24
53 0 2132 c0 2337 -4 2182 58 2306 55 110 192 215 324 247 41 9 249 12 895 13
l842 1 3 -227z m3202 -5123 c97 -49 155 -160 143 -275 -6 -61 -24 -100 -70
-151 -33 -38 -117 -84 -152 -84 -11 1 4 9 33 19 70 24 121 67 152 127 32 62
35 179 6 234 -25 49 -74 98 -121 123 -54 29 -183 31 -235 3 -87 -45 -143 -138
-143 -236 0 -84 25 -142 83 -193 53 -48 96 -67 155 -67 26 0 45 -5 45 -11 0
-18 -88 -1 -147 27 -94 45 -147 134 -146 244 1 36 8 82 17 103 24 55 84 117
141 144 67 32 167 29 239 -7z"/>
<path d="M4520 10159 c-734 -355 -780 -379 -805 -412 -20 -28 -20 -41 -23
-728 l-2 -699 -420 0 c-393 0 -424 -1 -477 -20 -66 -23 -131 -71 -179 -133
-19 -24 -117 -200 -219 -391 -162 -303 -185 -352 -180 -380 10 -46 49 -101 92
-127 l38 -24 2750 -3 c1961 -2 2761 0 2788 8 52 15 101 61 126 120 l22 51 -27
50 c-20 36 -30 46 -37 37 -6 -9 -7 -7 -3 6 4 12 -49 127 -165 352 -152 297
-176 339 -221 379 -83 74 -88 75 -590 75 l-438 0 0 682 c0 663 -1 683 -20 722
-11 23 -31 49 -45 58 -13 10 -117 62 -232 117 -114 54 -412 196 -661 315 -313
149 -464 216 -485 215 -20 0 -243 -103 -587 -270z m1404 -399 l178 -84 -490
-245 -490 -245 -492 244 c-350 175 -488 248 -477 254 7 5 227 109 488 230
l474 222 315 -146 c173 -81 395 -184 494 -230z m-1627 -463 c181 -89 410 -202
511 -251 l182 -89 0 -608 c0 -335 -2 -609 -5 -609 -4 0 -235 115 -515 256
l-510 255 0 605 c0 332 2 604 5 604 2 0 152 -73 332 -163z m1983 -440 l0 -603
-509 -257 c-280 -141 -511 -257 -513 -257 -3 0 -6 274 -7 608 l-2 608 508 252
c279 138 511 252 516 252 4 0 7 -271 7 -603z m-3313 -553 c-3 -3 -12 -4 -19
-1 -8 3 -5 6 6 6 11 1 17 -2 13 -5z m106 -1 c-7 -2 -19 -2 -25 0 -7 3 -2 5 12
5 14 0 19 -2 13 -5z m164 1 c-3 -3 -12 -4 -19 -1 -8 3 -5 6 6 6 11 1 17 -2 13
-5z m120 0 c-3 -3 -12 -4 -19 -1 -8 3 -5 6 6 6 11 1 17 -2 13 -5z m333 -4 c0
-5 -2 -10 -4 -10 -3 0 -8 5 -11 10 -3 6 -1 10 4 10 6 0 11 -4 11 -10z m2860
-171 c-23 -54 -54 -73 -465 -283 -73 -37 -102 -49 -91 -39 4 4 121 66 259 138
298 154 296 152 299 284 l2 86 3 -79 c2 -45 -1 -92 -7 -107z m197 175 c-3 -3
-12 -4 -19 -1 -8 3 -5 6 6 6 11 1 17 -2 13 -5z m276 -1 c-7 -2 -19 -2 -25 0
-7 3 -2 5 12 5 14 0 19 -2 13 -5z m50 0 c-7 -2 -19 -2 -25 0 -7 3 -2 5 12 5
14 0 19 -2 13 -5z m120 0 c-13 -2 -35 -2 -50 0 -16 2 -5 4 22 4 28 0 40 -2 28
-4z m85 0 c-10 -2 -28 -2 -40 0 -13 2 -5 4 17 4 22 1 32 -1 23 -4z m-4425 -10
c-7 -2 -19 -2 -25 0 -7 3 -2 5 12 5 14 0 19 -2 13 -5z m833 -50 c-11 -11 -17
4 -9 23 7 18 8 18 11 1 2 -10 1 -21 -2 -24z m3 -25 c-1 -7 -1 -30 0 -50 2 -67
41 -97 275 -215 116 -58 409 -209 651 -336 375 -196 448 -231 493 -235 49 -4
60 0 204 73 84 43 166 86 183 95 44 25 468 244 480 249 7 2 7 0 0 -7 -5 -5
-100 -56 -210 -112 -110 -57 -204 -106 -210 -110 -5 -4 -94 -51 -197 -104
-243 -124 -235 -124 -431 -22 -205 106 -431 223 -597 311 -314 165 -542 275
-553 269 -7 -4 -9 -4 -5 1 8 9 -61 61 -75 57 -5 -1 -6 2 -3 7 3 5 -1 24 -9 43
-11 28 -14 77 -6 96 4 8 12 0 10 -10z m4035 -234 c3 -8 2 -12 -4 -9 -6 3 -10
10 -10 16 0 14 7 11 14 -7z m-5477 -539 c0 -8 -6 -16 -14 -19 -11 -4 -11 -1
-3 14 13 24 17 25 17 5z"/>
<path d="M3972 8848 l3 -591 495 -249 c272 -136 498 -248 502 -248 5 0 8 268
8 595 l0 596 -387 190 c-465 229 -491 241 -505 233 -6 -4 -8 -3 -5 3 5 7 -90
63 -108 63 -3 0 -4 -266 -3 -592z"/>
<path d="M5761 9198 l-503 -249 4 -589 c2 -324 7 -592 10 -596 7 -7 568 275
568 286 0 3 6 7 13 7 12 0 396 189 410 202 4 4 6 273 5 597 l-3 591 -504 -249z"/>
<path d="M3860 5118 c-117 -33 -168 -178 -96 -273 37 -48 80 -69 146 -69 152
-1 231 168 134 284 -46 54 -118 77 -184 58z"/>
<path d="M6781 5024 c-205 -55 -343 -200 -380 -401 l-8 -43 152 0 152 0 7 38
c15 98 104 162 223 162 88 0 128 -13 174 -57 92 -87 71 -256 -39 -320 -39 -23
-60 -28 -139 -31 l-93 -4 0 -123 0 -122 99 -6 c113 -6 172 -27 214 -76 77 -92
48 -245 -60 -308 -61 -35 -198 -45 -268 -19 -52 20 -120 91 -130 135 l-7 31
-152 0 -153 0 8 -47 c30 -187 157 -314 369 -369 88 -24 272 -24 360 0 251 66
394 245 377 472 -7 88 -32 148 -87 208 -50 54 -91 81 -161 105 l-51 18 44 16
c154 52 235 178 226 352 -4 68 -10 95 -36 148 -58 118 -178 208 -324 242 -79
19 -246 18 -317 -1z"/>
<path d="M1510 4246 l0 -786 160 0 160 0 0 273 0 274 188 7 c103 3 217 13 254
21 200 42 351 183 389 363 16 78 7 254 -16 312 -48 119 -144 212 -267 258
-124 46 -187 53 -535 59 l-333 6 0 -787z m687 488 c57 -16 115 -60 138 -104
44 -84 23 -213 -44 -273 -57 -51 -119 -67 -303 -74 l-158 -6 0 235 c0 129 2
237 4 239 11 11 315 -3 363 -17z"/>
<path d="M7650 4246 l0 -786 233 0 c127 0 283 5 345 10 346 31 575 209 664
516 20 70 23 100 23 264 0 211 -10 260 -76 397 -69 143 -192 255 -348 316
-127 49 -199 58 -533 64 l-308 6 0 -787z m600 494 c173 -33 297 -157 335 -337
30 -139 12 -331 -40 -434 -35 -68 -112 -149 -170 -178 -79 -39 -142 -51 -277
-51 l-128 0 0 505 0 505 114 0 c62 0 137 -4 166 -10z"/>
<path d="M5720 4765 l0 -145 -110 0 -110 0 0 -120 0 -120 110 0 110 0 0 -318
c0 -351 6 -398 60 -477 37 -53 108 -99 185 -120 60 -15 199 -20 268 -9 l37 7
0 112 0 112 -76 5 c-84 6 -115 22 -149 79 -19 31 -20 55 -23 322 l-3 287 125
0 126 0 0 120 0 120 -125 0 -125 0 0 145 0 145 -150 0 -150 0 0 -145z"/>
<path d="M3420 4630 c-70 -15 -148 -60 -196 -113 -24 -27 -44 -53 -44 -58 0
-5 -4 -9 -10 -9 -6 0 -10 35 -10 85 l0 85 -150 0 -150 0 0 -580 0 -580 150 0
150 0 0 283 c0 162 5 309 11 342 15 81 49 145 103 192 57 50 116 68 222 68
l82 0 4 140 c3 77 5 141 4 142 -5 8 -130 10 -166 3z"/>
<path d="M4817 4630 c-60 -16 -116 -48 -163 -97 l-44 -45 0 66 0 66 -151 0
-152 0 6 -67 c4 -38 7 -299 7 -580 l0 -513 150 0 150 0 0 371 c0 411 2 430 60
490 62 65 203 77 295 26 91 -51 105 -130 104 -577 l0 -305 151 -3 151 -3 -3
433 c-4 479 -5 487 -71 584 -38 57 -114 117 -177 140 -53 19 -255 28 -313 14z"/>
<path d="M3764 4574 c3 -26 6 -287 6 -580 l0 -534 150 0 150 0 0 580 0 580
-156 0 -157 0 7 -46z"/>
</g>
</svg>
